# xmcd
#
# Track frame offsets:
#	150
#	13695
#	27725
#	41390
#	57860
#	78050
#	90822
#	109572
#	121625
#	135755
#
# Disc length: 1955 seconds
#
# Revision: 0
# Processed by: cddbd v1.5.2PL0 Copyright (c) Steve Scherf et al.
# Submitted via: EasyCDDAExtractor 9.0.0.1
#
DISCID=6107a10a
DTITLE=Mike Shannon - Country Song
DYEAR=1900
DGENRE=
TTITLE0=The wanderer
TTITLE1=The most beautiful girl in the world
TTITLE2=Here you come again
TTITLE3=Always on my mind
TTITLE4=You've lost that lovin' feelin'
TTITLE5=Save the last dance for me
TTITLE6=Medley Country (Walk rght black - Bowling green - Lonesome me)
TTITLE7=Dream baby
TTITLE8=Sundau sunrise
TTITLE9=I love my friend
EXTD=
EXTT0=
EXTT1=
EXTT2=
EXTT3=
EXTT4=
EXTT5=
EXTT6=
EXTT7=
EXTT8=
EXTT9=
PLAYORDER=
